<svg id="Layer_1" data-name="Layer 1" xmlns="http://www.w3.org/2000/svg" viewBox="0 0 566.93 566.93"><defs><style>.cls-1{fill:#49bed8;}.cls-2{fill:#845333;}.cls-3{fill:#b17f4a;}.cls-4{fill:#1d1d1b;}.cls-5{fill:#ffed00;}.cls-6{fill:#d6d6d6;}.cls-7{fill:#f29fc5;}</style></defs><title>empaty-lab-personas-individual-RGB</title><circle class="cls-1" cx="283.46" cy="283.46" r="271.12"/><path class="cls-2" d="M345.2,547.28V431.13H220.36V547.28a270.52,270.52,0,0,0,124.84,0Z"/><path class="cls-3" d="M283.56,449.6c-93.46,0-169.5-76-169.5-169.52s76-169.51,169.5-169.51,169.52,76,169.52,169.51S377,449.6,283.56,449.6Z"/><path class="cls-4" d="M231.52,283.25H220.84c-20.72,0-37.67-13.15-37.67-32.18V234.78h86v14.4C269.19,269.9,252.24,283.25,231.52,283.25Z"/><path class="cls-4" d="M346.7,283.25H336c-20.72,0-37.68-13.15-37.68-32.18V234.78h86v14.4C384.37,269.9,367.41,283.25,346.7,283.25Z"/><path class="cls-2" d="M301.66,294c0,13.47-8.14,24.49-18.09,24.49s-18.09-11-18.09-24.49V260.35c0-13.47,8.14-24.5,18.09-24.5s18.09,11,18.09,24.5Z"/><path class="cls-5" d="M154.56,412.7H83.42a5.41,5.41,0,0,1-4.84-7.81l35.57-71.57a5.41,5.41,0,0,1,9.68,0l35.57,71.57a5.41,5.41,0,0,1-4.84,7.81ZM92.13,401.9h53.72l-26.86-54Z"/><path class="cls-5" d="M483.35,412.7H412.2a5.4,5.4,0,0,1-4.83-7.81l35.57-71.57a5.4,5.4,0,0,1,9.67,0l35.57,71.57a5.4,5.4,0,0,1-4.83,7.81Zm-62.43-10.8h53.71l-26.86-54Z"/><path class="cls-6" d="M361.75,129.73V96l-78.18-21.6L203.81,96v34.51h0l79.75,52.93,79.76-52.93C362.8,130.26,362.27,130,361.75,129.73Z"/><path class="cls-7" d="M398.77,229.38h-230v10.8h9v10.89c0,21.42,18.52,37.58,43.07,37.58h10.68c25,0,43.07-16.6,43.07-39.47v-9h18.35v10.89c0,21.42,18.52,37.58,43.08,37.58H346.7c24.95,0,43.07-16.6,43.07-39.47v-9h9Zm-135,19.8c0,16.61-13.57,28.67-32.27,28.67H220.84c-18.4,0-32.27-11.51-32.27-26.78V240.18h75.22Zm115.18,0c0,16.61-13.57,28.67-32.27,28.67H336c-18.4,0-32.28-11.51-32.28-26.78V240.18H379Z"/><path class="cls-4" d="M283.47,355.89c-27.72,0-41.47-14.68-42.05-15.3A7.2,7.2,0,0,1,252,330.82a31.81,31.81,0,0,0,7.76,5.35,51.51,51.51,0,0,0,23.71,5.32c12.48,0,20.5-3,25-5.57a23,23,0,0,0,5.91-4.47A7.2,7.2,0,0,1,326,340C324.8,341.63,313.39,355.89,283.47,355.89Z"/></svg>