<svg id="Layer_1" data-name="Layer 1" xmlns="http://www.w3.org/2000/svg" viewBox="0 0 566.93 566.93"><defs><style>.cls-1{fill:#b881b7;}.cls-2{fill:#eabe8b;}.cls-3{fill:#d9a266;}.cls-4{fill:#ffed00;}.cls-5{fill:#1d1d1b;}.cls-6{fill:#f4c997;}.cls-7{fill:#fff;opacity:0.15;}</style></defs><title>empaty-lab-personas-individual-RGB</title><circle class="cls-1" cx="283.46" cy="283.46" r="271.12"/><path class="cls-2" d="M345.89,547.28V431.13H221V547.28a270.56,270.56,0,0,0,124.85,0Z"/><path class="cls-3" d="M283.47,124.35c-90.22,0-163.62,73.4-163.62,163.61s73.4,163.62,163.62,163.62S447.08,378.18,447.08,288,373.69,124.35,283.47,124.35Z"/><path class="cls-4" d="M464.59,232c-.11-.39-.23-.77-.37-1.14C439.77,154.32,368,98.75,283.47,98.75c-104.6,0-189.7,85.1-189.7,189.7V414.68a11.81,11.81,0,0,0,11.81,11.81H196.5A163.65,163.65,0,0,1,119.85,288c0-86.76,67.89-157.95,153.34-163.28,5.51,26.1,25.63,54.21,56.13,77.61,33.57,25.76,73.94,41.53,112.42,44.18a163.57,163.57,0,0,1-71.31,180h90.93a11.81,11.81,0,0,0,11.81-11.81V288.45A189,189,0,0,0,464.59,232Z"/><path class="cls-5" d="M283.47,395c-27.72,0-41.47-14.67-42.05-15.29A7.2,7.2,0,0,1,252,369.94a31.17,31.17,0,0,0,7.76,5.35,51.51,51.51,0,0,0,23.71,5.32c12.48,0,20.5-3,25-5.56a22.86,22.86,0,0,0,5.91-4.48A7.2,7.2,0,0,1,326,379.13C324.8,380.76,313.39,395,283.47,395Z"/><path class="cls-6" d="M298.54,340.22c0,11.23-6.78,20.41-15.08,20.41s-15.07-9.18-15.07-20.41V291.49c0-11.22,3.39-9.25,7.54-13.21,2.07-2,.36-28.17,7.53-28.17s5.47,26.19,7.54,28.17c4.15,4,7.54,2,7.54,13.21Z"/><path class="cls-7" d="M210.83,291.56c-20.35-6.09-20.56-25.19-20.56-44.09V235.06H275s1.26,22.29,1.26,28.94C276.29,291.56,230.88,297.56,210.83,291.56Z"/><path class="cls-7" d="M356.1,291.56c20.36-6.09,20.57-25.19,20.57-44.09V235.06H291.9s-1.25,22.29-1.25,28.94C290.65,291.56,336.06,297.56,356.1,291.56Z"/><path class="cls-5" d="M233.28,232.11A20.67,20.67,0,1,0,254,252.77,20.69,20.69,0,0,0,233.28,232.11Z"/><path class="cls-5" d="M333.66,232.11a20.67,20.67,0,1,0,20.66,20.66A20.69,20.69,0,0,0,333.66,232.11Z"/><path class="cls-5" d="M183.07,231.46v14.4h3.83v1.61c0,19,0,40.45,23,47.32h0a64.19,64.19,0,0,0,17.95,2.31c14.09,0,29.93-3.56,40.18-11.19,7.63-5.68,11.66-13.25,11.66-21.91,0-1.89-.1-5-.24-8.49h8.1c-.14,3.49-.24,6.6-.24,8.49,0,8.66,4,16.23,11.66,21.91,10.25,7.63,26.09,11.19,40.18,11.19a64.24,64.24,0,0,0,17.95-2.31c22.81-6.83,23-30,23-48.93h3.83v-14.4Zm80.91,49c-13.24,9.85-38.13,12-52.18,7.83h0c-16.9-5.06-18.16-19.47-18.16-40.87v-1.61h78.59c.33,6.67.69,14.66.69,18.14C272.92,270.54,269.91,276.09,264,280.51Zm109.32-33c0,21.4-1.26,35.81-18.16,40.87-14.06,4.21-38.94,2-52.18-7.83C297,276.09,294,270.54,294,264c0-3.48.36-11.47.69-18.14H373.3Z"/></svg>