<svg id="Layer_1" data-name="Layer 1" xmlns="http://www.w3.org/2000/svg" xmlns:xlink="http://www.w3.org/1999/xlink" viewBox="0 0 566.93 566.93"><defs><style>.cls-1{fill:none;}.cls-2{fill:#4d398e;}.cls-3{fill:#eabe8b;}.cls-4{fill:#f4dbbb;}.cls-5{clip-path:url(#clip-path);}.cls-6{fill:#a8a8a7;}.cls-7{fill:#1d1d1b;}.cls-8{fill:#fff;opacity:0.25;}</style><clipPath id="clip-path"><path class="cls-1" d="M113.85,279.25c0,93.47,76,169.52,169.5,169.52s169.52-76,169.52-169.52S376.82,109.73,283.35,109.73s-169.5,76-169.5,169.52"/></clipPath></defs><title>empaty-lab-personas-individual-RGB</title><circle class="cls-2" cx="283.46" cy="283.46" r="271.13"/><path class="cls-3" d="M345.89,547.29V431.14H221V547.29a270.56,270.56,0,0,0,124.85,0Z"/><path class="cls-4" d="M283.35,448.76c-93.47,0-169.52-76-169.52-169.51s76.05-169.54,169.52-169.54,169.53,76.06,169.53,169.54S376.83,448.76,283.35,448.76Z"/><g class="cls-5"><path class="cls-6" d="M117.89,242.33A91.72,91.72,0,0,0,189.69,138,170,170,0,0,0,117.89,242.33Z"/><path class="cls-6" d="M377,138a93,93,0,0,0-1.15,14.55,91.72,91.72,0,0,0,72.95,89.76A170,170,0,0,0,377,138Z"/></g><path class="cls-3" d="M301.5,306.17c0-.59.05-1.18.05-1.78V278c0-13.47-8.14-17.3-18.09-17.3s-18.09,3.83-18.09,17.3v26.43c0,.6,0,1.19.06,1.78-10.28,2.14-17.88,9.15-17.88,17.4,0,9.95,11,18.09,24.5,18.09h22.83c13.47,0,24.49-8.14,24.49-18.09C319.37,315.32,311.78,308.31,301.5,306.17Z"/><path class="cls-7" d="M283.36,384.1c-30.46,0-45.51-16.05-46.13-16.74a7.2,7.2,0,0,1,10.58-9.76,35.28,35.28,0,0,0,8.77,6.06,57.88,57.88,0,0,0,26.78,6c25.82,0,34.94-11.37,35-11.48A7.2,7.2,0,0,1,330,366.78c-.37.49-3.81,5-11.37,9.2C309,381.37,297.12,384.1,283.36,384.1Z"/><circle class="cls-8" cx="225.69" cy="262.28" r="40.05"/><circle class="cls-8" cx="341.25" cy="262.28" r="40.05"/><path class="cls-7" d="M391.56,258.68h-6.82a43.64,43.64,0,0,0-87,0H269.18a43.64,43.64,0,0,0-87,0h-6.83v7.2h6.83a43.64,43.64,0,0,0,87,0h28.58a43.64,43.64,0,0,0,87,0h6.82ZM225.69,298.73a36.45,36.45,0,1,1,36.45-36.45A36.49,36.49,0,0,1,225.69,298.73Zm115.56,0a36.45,36.45,0,1,1,36.45-36.45A36.49,36.49,0,0,1,341.25,298.73Z"/><path class="cls-7" d="M225.69,243.89c-14.46,0-23.8,7.93-23.8,20.2,0,16.59,16.68,16.59,23.8,16.59s23.79,0,23.79-16.59C249.48,251.82,240.14,243.89,225.69,243.89Z"/><path class="cls-7" d="M341.25,243.89c-14.45,0-23.79,7.93-23.79,20.2,0,16.59,16.67,16.59,23.79,16.59s23.79,0,23.79-16.59C365,251.82,355.7,243.89,341.25,243.89Z"/></svg>