<svg id="Layer_1" data-name="Layer 1" xmlns="http://www.w3.org/2000/svg" viewBox="0 0 566.93 566.93"><defs><style>.cls-1{fill:#ffe163;}.cls-2{fill:#3e84b0;}.cls-3{fill:#845333;}.cls-4{fill:#b17f4a;}.cls-5{fill:#1d1d1b;}</style></defs><title>empaty-lab-personas-individual-RGB</title><circle class="cls-1" cx="283.46" cy="283.46" r="271.13"/><path class="cls-2" d="M345.89,547.29V431.14H221V547.29a270.56,270.56,0,0,0,124.85,0Z"/><path class="cls-3" d="M283.2,449.6c-93.46,0-169.5-76-169.5-169.52s76-169.51,169.5-169.51,169.52,76,169.52,169.51S376.68,449.6,283.2,449.6Z"/><path class="cls-4" d="M301.55,318.79c0,13.47-8.14,24.49-18.09,24.49s-18.09-11-18.09-24.49V296c0-13.47,8.15-24.5,18.09-24.5s18.09,11,18.09,24.5Z"/><path class="cls-5" d="M229.75,262.15c-13.47,0-24.5-8.14-24.5-18.09s11-18.09,24.5-18.09H231c13.47,0,24.49,8.14,24.49,18.09s-11,18.09-24.49,18.09Z"/><path class="cls-5" d="M336,262.15c-13.47,0-24.5-8.14-24.5-18.09S322.48,226,336,226h1.23c13.47,0,24.49,8.14,24.49,18.09s-11,18.09-24.49,18.09Z"/><path class="cls-5" d="M283.46,376.9c-30.45,0-45.5-16-46.12-16.74a7.2,7.2,0,0,1,10.58-9.76,35.6,35.6,0,0,0,8.77,6.06,57.87,57.87,0,0,0,26.77,6c25.83,0,35-11.37,35-11.48a7.2,7.2,0,0,1,11.58,8.56c-.36.49-3.8,5-11.36,9.2C309.08,374.17,297.22,376.9,283.46,376.9Z"/><path class="cls-5" d="M305,447.05l-14.4-46.91a3.61,3.61,0,0,0-3.45-2.54h-7.38a3.6,3.6,0,0,0-3.44,2.54l-14.4,46.91a3.6,3.6,0,0,0,2.11,4.4l18.09,7.2a3.56,3.56,0,0,0,2.67,0l18.09-7.2A3.6,3.6,0,0,0,305,447.05Z"/><path class="cls-5" d="M349.84,124.22a169.45,169.45,0,0,0-133.26,0,92.5,92.5,0,0,0,133.26,0Z"/></svg>