<svg id="Layer_1" data-name="Layer 1" xmlns="http://www.w3.org/2000/svg" viewBox="0 0 566.93 566.93"><defs><style>.cls-1{fill:#ea5297;}.cls-2{fill:#eabe8b;}.cls-3{fill:#f4dbbb;}.cls-4{fill:#1d1d1b;}.cls-5{fill:#a8a8a7;}.cls-6{fill:#b17f4a;}</style></defs><title>empaty-lab-personas-individual-RGB</title><circle class="cls-1" cx="283.46" cy="283.46" r="271.13"/><path class="cls-2" d="M345.89,547.28V431.13H221V547.28a270.56,270.56,0,0,0,124.85,0Z"/><path class="cls-3" d="M283.46,449.6C190,449.6,114,373.56,114,280.08s76-169.51,169.51-169.51S453,186.61,453,280.08,376.93,449.6,283.46,449.6Z"/><path class="cls-4" d="M225.69,225.91c-14.46,0-23.8,7.92-23.8,20.2,0,16.58,16.68,16.58,23.8,16.58s23.79,0,23.79-16.58C249.48,233.83,240.14,225.91,225.69,225.91Z"/><path class="cls-4" d="M341.25,225.91c-14.45,0-23.79,7.92-23.79,20.2,0,16.58,16.67,16.58,23.79,16.58s23.79,0,23.79-16.58C365,233.83,355.7,225.91,341.25,225.91Z"/><path class="cls-5" d="M377.35,139a169.15,169.15,0,0,0-187.78,0l91.66,29.7a7.4,7.4,0,0,0,2.22.35,7.3,7.3,0,0,0,2.22-.35Z"/><path class="cls-6" d="M154.12,296a6.49,6.49,0,1,1-6.5-6.49,6.49,6.49,0,0,1,6.5,6.49"/><path class="cls-6" d="M171.42,322a6.49,6.49,0,1,1-6.49-6.47,6.48,6.48,0,0,1,6.49,6.47"/><path class="cls-6" d="M188.72,296a6.49,6.49,0,1,1-6.48-6.49,6.48,6.48,0,0,1,6.48,6.49"/><path class="cls-6" d="M391.18,296a6.5,6.5,0,1,1-6.49-6.49,6.48,6.48,0,0,1,6.49,6.49"/><path class="cls-6" d="M408.48,322a6.49,6.49,0,1,1-6.49-6.47,6.49,6.49,0,0,1,6.49,6.47"/><path class="cls-6" d="M425.79,296a6.5,6.5,0,1,1-6.49-6.49,6.49,6.49,0,0,1,6.49,6.49"/><path class="cls-2" d="M274.33,327.36c-10.78,0-19.59-6.51-19.59-14.47s5.63-21.25,12.52-29.54l3.68-4.43c6.89-8.28,18.16-8.28,25.05,0l3.68,4.43c6.89,8.29,12.52,21.58,12.52,29.54s-8.81,14.47-19.59,14.47Z"/><path class="cls-4" d="M283.47,390c-27.72,0-41.47-14.67-42.05-15.29A7.2,7.2,0,0,1,252,364.94a31.17,31.17,0,0,0,7.76,5.35,51.51,51.51,0,0,0,23.71,5.32c12.48,0,20.5-3,25-5.56a22.86,22.86,0,0,0,5.91-4.48A7.2,7.2,0,0,1,326,374.13C324.8,375.76,313.39,390,283.47,390Z"/></svg>