<svg id="Layer_1" data-name="Layer 1" xmlns="http://www.w3.org/2000/svg" viewBox="0 0 566.93 566.93"><defs><style>.cls-1{fill:#eb5e51;}.cls-2{fill:#eabe8b;}.cls-3{fill:#f4dbbb;}.cls-4{fill:#c8a677;}.cls-5{fill:#1d1d1b;}.cls-6{fill:#58a4da;}.cls-7{fill:#3e84b0;}</style></defs><title>empaty-lab-personas-individual-RGB</title><circle class="cls-1" cx="283.46" cy="283.46" r="271.12"/><path class="cls-2" d="M345.89,547.28V431.13H221V547.28a270.56,270.56,0,0,0,124.85,0Z"/><path class="cls-3" d="M283.68,449.6c-93.47,0-169.51-76.05-169.51-169.52s76-169.53,169.51-169.53S453.21,186.6,453.21,280.08,377.16,449.6,283.68,449.6Z"/><path class="cls-4" d="M377.35,138.85a93.05,93.05,0,0,0-1.15,14.55,91.73,91.73,0,0,0,72.95,89.77A170,170,0,0,0,377.35,138.85Z"/><path class="cls-4" d="M118.22,243.17A91.72,91.72,0,0,0,190,138.85,170,170,0,0,0,118.22,243.17Z"/><path class="cls-5" d="M309,386.73H258a9,9,0,0,1,0-18h51a9,9,0,0,1,0,18Z"/><path class="cls-6" d="M416.06,191.69H150.86V139a61.41,61.41,0,0,1,61.23-61.23H354.84A61.4,61.4,0,0,1,416.06,139Z"/><path class="cls-7" d="M437.3,209.21H129.63V153.34A20.47,20.47,0,0,1,150,132.93H416.89a20.47,20.47,0,0,1,20.41,20.41Z"/><path class="cls-4" d="M342.14,370.53s-12.06,7.2-33.16,7.2c-6.58,0-25.29-7.2-25.29-7.2s-19.06,7.2-25.74,7.2c-20,0-33.16-7.2-33.16-7.2V359.28s33.16-2.61,58.67-18c25.52,15.69,58.68,18,58.68,18Z"/><path class="cls-5" d="M227.37,242.23A20.67,20.67,0,1,0,248,262.89,20.69,20.69,0,0,0,227.37,242.23Z"/><path class="cls-5" d="M339.56,242.23a20.67,20.67,0,1,0,20.67,20.66A20.69,20.69,0,0,0,339.56,242.23Z"/><path class="cls-2" d="M301.55,305.23c0,13.47-8.14,24.49-18.09,24.49s-18.09-11-18.09-24.49V268c0-13.47,8.15-24.49,18.09-24.49s18.09,11,18.09,24.49Z"/></svg>