<svg id="Layer_1" data-name="Layer 1" xmlns="http://www.w3.org/2000/svg" viewBox="0 0 566.93 566.93"><defs><style>.cls-1{fill:#d7e5b3;}.cls-2{fill:#bf8b54;}.cls-3{fill:#d9a266;}.cls-4{fill:#1d1d1b;}.cls-5{fill:#f4c997;}.cls-6{fill:#9d1a16;}.cls-7{fill:#ffed00;}</style></defs><title>empaty-lab-personas-individual-RGB</title><circle class="cls-1" cx="283.46" cy="283.46" r="271.13"/><path class="cls-2" d="M345.88,547.29V431.14H221V547.29a270.52,270.52,0,0,0,124.84,0Z"/><path class="cls-3" d="M283.47,450.74c-90.23,0-163.63-73.39-163.63-163.61s73.4-163.61,163.63-163.61,163.6,73.39,163.6,163.61S373.68,450.74,283.47,450.74Z"/><path class="cls-4" d="M233.27,272.61a20.67,20.67,0,1,1,20.67-20.67A20.7,20.7,0,0,1,233.27,272.61Z"/><path class="cls-4" d="M333.65,272.61a20.67,20.67,0,1,1,20.67-20.67A20.69,20.69,0,0,1,333.65,272.61Z"/><path class="cls-5" d="M298.53,303.61c0,11.23-6.78,20.41-15.07,20.41s-15.08-9.18-15.08-20.41V244.08c0-11.22,6.79-20.41,15.08-20.41s15.07,9.19,15.07,20.41Z"/><path class="cls-6" d="M283.46,97.92c-104.6,0-189.7,85.1-189.7,189.7V417.45a11.81,11.81,0,0,0,11.81,11.81h96.91A163.55,163.55,0,0,1,128,236l-.63,2.8H439.78a163.63,163.63,0,0,1-75.34,190.47h96.92a11.81,11.81,0,0,0,11.81-11.81V287.62C473.17,183,388.07,97.92,283.46,97.92Z"/><path class="cls-4" d="M283.47,376.9c-30.46,0-45.51-16-46.13-16.74a7.2,7.2,0,0,1,10.58-9.76,35.85,35.85,0,0,0,8.77,6.06,57.88,57.88,0,0,0,26.78,6c25.82,0,34.94-11.37,35-11.48a7.2,7.2,0,0,1,11.58,8.56c-.37.5-3.81,5-11.37,9.2C309.08,374.17,297.23,376.9,283.47,376.9Z"/><path class="cls-7" d="M156.38,356.24a21.76,21.76,0,1,1-21.76-21.75A21.76,21.76,0,0,1,156.38,356.24Z"/><path class="cls-7" d="M454.07,356.24a21.76,21.76,0,1,1-21.75-21.75A21.75,21.75,0,0,1,454.07,356.24Z"/></svg>